<mxfile host="app.diagrams.net" modified="2023-12-27T08:17:11.962Z" agent="Mozilla/5.0 (Windows NT 10.0; Win64; x64) AppleWebKit/537.36 (KHTML, like Gecko) Chrome/120.0.0.0 Safari/537.36 Edg/120.0.0.0" etag="s1F6DoiQWHCpC7IoI7D0" version="22.1.12" type="github">
  <diagram name="Page-1" id="2c0d36ab-eaac-3732-788b-9136903baeff">
    <mxGraphModel dx="2093" dy="1034" grid="1" gridSize="10" guides="1" tooltips="1" connect="1" arrows="1" fold="1" page="1" pageScale="1.5" pageWidth="1169" pageHeight="827" background="none" math="0" shadow="0">
      <root>
        <mxCell id="0" />
        <mxCell id="1" parent="0" />
        <mxCell id="mr97MAXbSIuRlWpQxelZ-235" value="" style="fillColor=#12AAB5;strokeColor=none;opacity=30;" vertex="1" parent="1">
          <mxGeometry x="1532" y="448.12" width="150" height="261.88" as="geometry" />
        </mxCell>
        <mxCell id="mr97MAXbSIuRlWpQxelZ-191" value="" style="fillColor=#12AAB5;strokeColor=none;opacity=30;" vertex="1" parent="1">
          <mxGeometry x="1130" y="450" width="150" height="170" as="geometry" />
        </mxCell>
        <mxCell id="mr97MAXbSIuRlWpQxelZ-189" value="" style="fillColor=#12AAB5;strokeColor=none;opacity=30;" vertex="1" parent="1">
          <mxGeometry x="612.5" y="476.37" width="150" height="79.5" as="geometry" />
        </mxCell>
        <mxCell id="mr97MAXbSIuRlWpQxelZ-143" value="" style="fillColor=#12AAB5;strokeColor=none;opacity=30;" vertex="1" parent="1">
          <mxGeometry x="214" y="450.5" width="150" height="259.5" as="geometry" />
        </mxCell>
        <mxCell id="123" value="" style="fillColor=#AE4132;strokeColor=none;opacity=30;" parent="1" vertex="1">
          <mxGeometry x="865.5" y="175.50000000000003" width="210" height="99.99999999999994" as="geometry" />
        </mxCell>
        <mxCell id="122" value="" style="fillColor=#10739E;strokeColor=none;opacity=30;" parent="1" vertex="1">
          <mxGeometry x="47" y="325.5" width="1823" height="100" as="geometry" />
        </mxCell>
        <mxCell id="117" value="" style="fillColor=#F2931E;strokeColor=none;opacity=30;" parent="1" vertex="1">
          <mxGeometry x="592.5" y="584.5" width="150" height="260" as="geometry" />
        </mxCell>
        <mxCell id="108" value="" style="fillColor=#12AAB5;strokeColor=none;opacity=30;" parent="1" vertex="1">
          <mxGeometry x="18" y="450.5" width="150" height="259.5" as="geometry" />
        </mxCell>
        <mxCell id="mr97MAXbSIuRlWpQxelZ-128" style="edgeStyle=elbowEdgeStyle;elbow=vertical;strokeWidth=2;rounded=0" edge="1" parent="1" source="2" target="mr97MAXbSIuRlWpQxelZ-123">
          <mxGeometry relative="1" as="geometry" />
        </mxCell>
        <mxCell id="mr97MAXbSIuRlWpQxelZ-159" style="edgeStyle=elbowEdgeStyle;shape=connector;rounded=0;orthogonalLoop=1;jettySize=auto;elbow=vertical;html=1;exitX=0.5;exitY=1;exitDx=0;exitDy=0;labelBackgroundColor=default;strokeColor=default;strokeWidth=2;align=center;verticalAlign=middle;fontFamily=Helvetica;fontSize=11;fontColor=default;endArrow=classic;" edge="1" parent="1" source="2" target="mr97MAXbSIuRlWpQxelZ-124">
          <mxGeometry relative="1" as="geometry" />
        </mxCell>
        <mxCell id="mr97MAXbSIuRlWpQxelZ-160" style="edgeStyle=elbowEdgeStyle;shape=connector;rounded=0;orthogonalLoop=1;jettySize=auto;elbow=vertical;html=1;exitX=0.5;exitY=1;exitDx=0;exitDy=0;labelBackgroundColor=default;strokeColor=default;strokeWidth=2;align=center;verticalAlign=middle;fontFamily=Helvetica;fontSize=11;fontColor=default;endArrow=classic;" edge="1" parent="1" source="2" target="mr97MAXbSIuRlWpQxelZ-125">
          <mxGeometry relative="1" as="geometry" />
        </mxCell>
        <mxCell id="mr97MAXbSIuRlWpQxelZ-161" style="edgeStyle=elbowEdgeStyle;shape=connector;rounded=0;orthogonalLoop=1;jettySize=auto;elbow=vertical;html=1;exitX=0.5;exitY=1;exitDx=0;exitDy=0;labelBackgroundColor=default;strokeColor=default;strokeWidth=2;align=center;verticalAlign=middle;fontFamily=Helvetica;fontSize=11;fontColor=default;endArrow=classic;" edge="1" parent="1" source="2" target="mr97MAXbSIuRlWpQxelZ-126">
          <mxGeometry relative="1" as="geometry" />
        </mxCell>
        <mxCell id="2" value="健身APP" style="rounded=1;fillColor=#23445D;gradientColor=none;strokeColor=none;fontColor=#FFFFFF;fontStyle=1;fontFamily=Tahoma;fontSize=14" parent="1" vertex="1">
          <mxGeometry x="875.5" y="185.5" width="190" height="80" as="geometry" />
        </mxCell>
        <mxCell id="mr97MAXbSIuRlWpQxelZ-209" style="edgeStyle=elbowEdgeStyle;shape=connector;rounded=0;orthogonalLoop=1;jettySize=auto;elbow=vertical;html=1;exitX=0.5;exitY=1;exitDx=0;exitDy=0;entryX=0.5;entryY=0;entryDx=0;entryDy=0;labelBackgroundColor=default;strokeColor=default;strokeWidth=2;align=center;verticalAlign=middle;fontFamily=Helvetica;fontSize=11;fontColor=default;endArrow=classic;" edge="1" parent="1" source="4" target="mr97MAXbSIuRlWpQxelZ-206">
          <mxGeometry relative="1" as="geometry" />
        </mxCell>
        <mxCell id="mr97MAXbSIuRlWpQxelZ-210" style="edgeStyle=elbowEdgeStyle;shape=connector;rounded=0;orthogonalLoop=1;jettySize=auto;elbow=vertical;html=1;exitX=0.5;exitY=1;exitDx=0;exitDy=0;entryX=0.5;entryY=0;entryDx=0;entryDy=0;labelBackgroundColor=default;strokeColor=default;strokeWidth=2;align=center;verticalAlign=middle;fontFamily=Helvetica;fontSize=11;fontColor=default;endArrow=classic;" edge="1" parent="1" source="4" target="mr97MAXbSIuRlWpQxelZ-187">
          <mxGeometry relative="1" as="geometry" />
        </mxCell>
        <mxCell id="mr97MAXbSIuRlWpQxelZ-223" style="edgeStyle=elbowEdgeStyle;shape=connector;rounded=0;orthogonalLoop=1;jettySize=auto;elbow=vertical;html=1;exitX=0.5;exitY=1;exitDx=0;exitDy=0;labelBackgroundColor=default;strokeColor=default;strokeWidth=2;align=center;verticalAlign=middle;fontFamily=Helvetica;fontSize=11;fontColor=default;endArrow=classic;" edge="1" parent="1" source="4" target="mr97MAXbSIuRlWpQxelZ-222">
          <mxGeometry relative="1" as="geometry" />
        </mxCell>
        <mxCell id="4" value="AI模型訓練與導入" style="rounded=1;fillColor=#23445D;gradientColor=none;strokeColor=none;fontColor=#FFFFFF;fontStyle=1;fontFamily=Tahoma;fontSize=14" parent="1" vertex="1">
          <mxGeometry x="756.9999999999998" y="335.5" width="190" height="80" as="geometry" />
        </mxCell>
        <mxCell id="9" value="" style="edgeStyle=elbowEdgeStyle;elbow=vertical;strokeWidth=2;rounded=0" parent="1" source="2" target="4" edge="1">
          <mxGeometry x="337" y="215.5" width="100" height="100" as="geometry">
            <mxPoint x="337" y="315.5" as="sourcePoint" />
            <mxPoint x="437" y="215.5" as="targetPoint" />
          </mxGeometry>
        </mxCell>
        <mxCell id="10" value="使用者介面設計" style="rounded=1;fillColor=#23445D;gradientColor=none;strokeColor=none;fontColor=#FFFFFF;fontStyle=1;fontFamily=Tahoma;fontSize=14" parent="1" vertex="1">
          <mxGeometry x="457" y="335.5" width="190" height="80" as="geometry" />
        </mxCell>
        <mxCell id="12" value="資料準備" style="rounded=1;fillColor=#23445D;gradientColor=none;strokeColor=none;fontColor=#FFFFFF;fontStyle=1;fontFamily=Tahoma;fontSize=14" parent="1" vertex="1">
          <mxGeometry x="256.9999999999999" y="335.5" width="190" height="80" as="geometry" />
        </mxCell>
        <mxCell id="13" value="項目規劃" style="rounded=1;fillColor=#23445D;gradientColor=none;strokeColor=none;fontColor=#FFFFFF;fontStyle=1;fontFamily=Tahoma;fontSize=14" parent="1" vertex="1">
          <mxGeometry x="57" y="335.5" width="190" height="80" as="geometry" />
        </mxCell>
        <mxCell id="14" value="制定需求文檔" style="rounded=1;fillColor=#23445D;gradientColor=none;strokeColor=none;fontColor=#FFFFFF;fontStyle=1;fontFamily=Tahoma;fontSize=14" parent="1" vertex="1">
          <mxGeometry x="28" y="460.5" width="130" height="60" as="geometry" />
        </mxCell>
        <mxCell id="16" value="定義功能和特色" style="rounded=1;fillColor=#23445D;gradientColor=none;strokeColor=none;fontColor=#FFFFFF;fontStyle=1;fontFamily=Tahoma;fontSize=14" parent="1" vertex="1">
          <mxGeometry x="28" y="545.5" width="130" height="60" as="geometry" />
        </mxCell>
        <mxCell id="17" value="確定目標用戶群" style="rounded=1;fillColor=#23445D;gradientColor=none;strokeColor=none;fontColor=#FFFFFF;fontStyle=1;fontFamily=Tahoma;fontSize=14" parent="1" vertex="1">
          <mxGeometry x="28" y="635.5" width="130" height="60" as="geometry" />
        </mxCell>
        <mxCell id="25" value="收集和整理用於&#xa;訓練的圖像和數據" style="rounded=1;fillColor=#23445D;gradientColor=none;strokeColor=none;fontColor=#FFFFFF;fontStyle=1;fontFamily=Tahoma;fontSize=14" parent="1" vertex="1">
          <mxGeometry x="224" y="460.5" width="130" height="60" as="geometry" />
        </mxCell>
        <mxCell id="29" value="建立標籤和標註系統" style="rounded=1;fillColor=#23445D;gradientColor=none;strokeColor=none;fontColor=#FFFFFF;fontStyle=1;fontFamily=Tahoma;fontSize=14" parent="1" vertex="1">
          <mxGeometry x="224" y="545.5" width="130" height="60" as="geometry" />
        </mxCell>
        <mxCell id="33" value="清理和處理圖像數據" style="rounded=1;fillColor=#23445D;gradientColor=none;strokeColor=none;fontColor=#FFFFFF;fontStyle=1;fontFamily=Tahoma;fontSize=14" parent="1" vertex="1">
          <mxGeometry x="224" y="635.5" width="130" height="60" as="geometry" />
        </mxCell>
        <mxCell id="59" value="" style="edgeStyle=elbowEdgeStyle;elbow=vertical;strokeWidth=2;rounded=0" parent="1" source="2" target="12" edge="1">
          <mxGeometry x="347" y="225.5" width="100" height="100" as="geometry">
            <mxPoint x="861.9999999999999" y="275.5" as="sourcePoint" />
            <mxPoint x="1466.9999999999998" y="345.5" as="targetPoint" />
          </mxGeometry>
        </mxCell>
        <mxCell id="61" value="" style="edgeStyle=elbowEdgeStyle;elbow=vertical;strokeWidth=2;rounded=0" parent="1" source="2" target="13" edge="1">
          <mxGeometry x="-23" y="135.5" width="100" height="100" as="geometry">
            <mxPoint x="-23" y="235.5" as="sourcePoint" />
            <mxPoint x="77" y="135.5" as="targetPoint" />
          </mxGeometry>
        </mxCell>
        <mxCell id="62" value="" style="edgeStyle=elbowEdgeStyle;elbow=vertical;strokeWidth=2;rounded=0;entryX=1;entryY=0.5;entryDx=0;entryDy=0;" parent="1" target="14" edge="1">
          <mxGeometry x="-23" y="135.5" width="100" height="100" as="geometry">
            <mxPoint x="180" y="415.5" as="sourcePoint" />
            <mxPoint x="55" y="135.5" as="targetPoint" />
            <Array as="points">
              <mxPoint x="180" y="490" />
            </Array>
          </mxGeometry>
        </mxCell>
        <mxCell id="64" value="" style="edgeStyle=elbowEdgeStyle;elbow=horizontal;strokeWidth=2;rounded=0" parent="1" target="16" edge="1">
          <mxGeometry x="-23" y="135.5" width="100" height="100" as="geometry">
            <mxPoint x="180" y="415.5" as="sourcePoint" />
            <mxPoint x="55" y="135.5" as="targetPoint" />
            <Array as="points">
              <mxPoint x="180" y="435.5" />
            </Array>
          </mxGeometry>
        </mxCell>
        <mxCell id="65" value="" style="edgeStyle=elbowEdgeStyle;elbow=horizontal;strokeWidth=2;rounded=0" parent="1" target="17" edge="1">
          <mxGeometry x="-23" y="135.5" width="100" height="100" as="geometry">
            <mxPoint x="180" y="415.5" as="sourcePoint" />
            <mxPoint x="55" y="135.5" as="targetPoint" />
            <Array as="points">
              <mxPoint x="180" y="475.5" />
            </Array>
          </mxGeometry>
        </mxCell>
        <mxCell id="mr97MAXbSIuRlWpQxelZ-226" style="edgeStyle=elbowEdgeStyle;shape=connector;rounded=0;orthogonalLoop=1;jettySize=auto;elbow=vertical;html=1;exitX=0.25;exitY=1;exitDx=0;exitDy=0;entryX=0;entryY=0.5;entryDx=0;entryDy=0;labelBackgroundColor=default;strokeColor=default;strokeWidth=2;align=center;verticalAlign=middle;fontFamily=Helvetica;fontSize=11;fontColor=default;endArrow=classic;" edge="1" parent="1" source="mr97MAXbSIuRlWpQxelZ-123" target="mr97MAXbSIuRlWpQxelZ-183">
          <mxGeometry relative="1" as="geometry">
            <Array as="points">
              <mxPoint x="1120" y="490" />
            </Array>
          </mxGeometry>
        </mxCell>
        <mxCell id="mr97MAXbSIuRlWpQxelZ-227" style="edgeStyle=elbowEdgeStyle;shape=connector;rounded=0;orthogonalLoop=1;jettySize=auto;elbow=vertical;html=1;exitX=0.25;exitY=1;exitDx=0;exitDy=0;entryX=0;entryY=0.5;entryDx=0;entryDy=0;labelBackgroundColor=default;strokeColor=default;strokeWidth=2;align=center;verticalAlign=middle;fontFamily=Helvetica;fontSize=11;fontColor=default;endArrow=classic;" edge="1" parent="1" source="mr97MAXbSIuRlWpQxelZ-123" target="mr97MAXbSIuRlWpQxelZ-182">
          <mxGeometry relative="1" as="geometry">
            <Array as="points">
              <mxPoint x="1100" y="576" />
            </Array>
          </mxGeometry>
        </mxCell>
        <mxCell id="mr97MAXbSIuRlWpQxelZ-123" value="GOOGLE登入整合" style="rounded=1;fillColor=#23445D;gradientColor=none;strokeColor=none;fontColor=#FFFFFF;fontStyle=1;fontFamily=Tahoma;fontSize=14" vertex="1" parent="1">
          <mxGeometry x="1069.9999999999998" y="335.5" width="190" height="80" as="geometry" />
        </mxCell>
        <mxCell id="mr97MAXbSIuRlWpQxelZ-124" value="後端伺服器" style="rounded=1;fillColor=#23445D;gradientColor=none;strokeColor=none;fontColor=#FFFFFF;fontStyle=1;fontFamily=Tahoma;fontSize=14" vertex="1" parent="1">
          <mxGeometry x="1269.9999999999998" y="335.5" width="190" height="80" as="geometry" />
        </mxCell>
        <mxCell id="mr97MAXbSIuRlWpQxelZ-238" style="edgeStyle=elbowEdgeStyle;shape=connector;rounded=0;orthogonalLoop=1;jettySize=auto;elbow=vertical;html=1;exitX=0.25;exitY=1;exitDx=0;exitDy=0;entryX=0;entryY=0.5;entryDx=0;entryDy=0;labelBackgroundColor=default;strokeColor=default;strokeWidth=2;align=center;verticalAlign=middle;fontFamily=Helvetica;fontSize=11;fontColor=default;endArrow=classic;" edge="1" parent="1" source="mr97MAXbSIuRlWpQxelZ-125" target="mr97MAXbSIuRlWpQxelZ-181">
          <mxGeometry relative="1" as="geometry">
            <Array as="points">
              <mxPoint x="1510" y="665" />
            </Array>
          </mxGeometry>
        </mxCell>
        <mxCell id="mr97MAXbSIuRlWpQxelZ-239" style="edgeStyle=elbowEdgeStyle;shape=connector;rounded=0;orthogonalLoop=1;jettySize=auto;elbow=vertical;html=1;exitX=0.25;exitY=1;exitDx=0;exitDy=0;entryX=0;entryY=0.5;entryDx=0;entryDy=0;labelBackgroundColor=default;strokeColor=default;strokeWidth=2;align=center;verticalAlign=middle;fontFamily=Helvetica;fontSize=11;fontColor=default;endArrow=classic;" edge="1" parent="1" source="mr97MAXbSIuRlWpQxelZ-125" target="mr97MAXbSIuRlWpQxelZ-236">
          <mxGeometry relative="1" as="geometry">
            <Array as="points">
              <mxPoint x="1518" y="489" />
            </Array>
          </mxGeometry>
        </mxCell>
        <mxCell id="mr97MAXbSIuRlWpQxelZ-240" style="edgeStyle=elbowEdgeStyle;shape=connector;rounded=0;orthogonalLoop=1;jettySize=auto;elbow=vertical;html=1;exitX=0.25;exitY=1;exitDx=0;exitDy=0;entryX=0;entryY=0.5;entryDx=0;entryDy=0;labelBackgroundColor=default;strokeColor=default;strokeWidth=2;align=center;verticalAlign=middle;fontFamily=Helvetica;fontSize=11;fontColor=default;endArrow=classic;" edge="1" parent="1" source="mr97MAXbSIuRlWpQxelZ-125" target="mr97MAXbSIuRlWpQxelZ-237">
          <mxGeometry relative="1" as="geometry">
            <Array as="points">
              <mxPoint x="1518" y="574" />
            </Array>
          </mxGeometry>
        </mxCell>
        <mxCell id="mr97MAXbSIuRlWpQxelZ-125" value="測試與品質保證" style="rounded=1;fillColor=#23445D;gradientColor=none;strokeColor=none;fontColor=#FFFFFF;fontStyle=1;fontFamily=Tahoma;fontSize=14" vertex="1" parent="1">
          <mxGeometry x="1469.9999999999998" y="335.5" width="190" height="80" as="geometry" />
        </mxCell>
        <mxCell id="mr97MAXbSIuRlWpQxelZ-126" value="部署APP" style="rounded=1;fillColor=#23445D;gradientColor=none;strokeColor=none;fontColor=#FFFFFF;fontStyle=1;fontFamily=Tahoma;fontSize=14" vertex="1" parent="1">
          <mxGeometry x="1669.9999999999998" y="335.5" width="190" height="80" as="geometry" />
        </mxCell>
        <mxCell id="mr97MAXbSIuRlWpQxelZ-140" value="" style="edgeStyle=elbowEdgeStyle;elbow=horizontal;strokeWidth=2;rounded=0" edge="1" parent="1">
          <mxGeometry x="-23" y="135.5" width="100" height="100" as="geometry">
            <mxPoint x="376" y="415.5" as="sourcePoint" />
            <mxPoint x="354" y="665.5" as="targetPoint" />
            <Array as="points">
              <mxPoint x="376" y="475" />
            </Array>
          </mxGeometry>
        </mxCell>
        <mxCell id="mr97MAXbSIuRlWpQxelZ-141" value="" style="edgeStyle=elbowEdgeStyle;elbow=vertical;strokeWidth=2;rounded=0;entryX=1;entryY=0.5;entryDx=0;entryDy=0;" edge="1" parent="1">
          <mxGeometry x="-23" y="135.5" width="100" height="100" as="geometry">
            <mxPoint x="376" y="415.5" as="sourcePoint" />
            <mxPoint x="354" y="490.5" as="targetPoint" />
            <Array as="points">
              <mxPoint x="376" y="489.5" />
            </Array>
          </mxGeometry>
        </mxCell>
        <mxCell id="mr97MAXbSIuRlWpQxelZ-142" value="" style="edgeStyle=elbowEdgeStyle;elbow=horizontal;strokeWidth=2;rounded=0" edge="1" parent="1">
          <mxGeometry x="-23" y="135.5" width="100" height="100" as="geometry">
            <mxPoint x="376" y="415.5" as="sourcePoint" />
            <mxPoint x="354" y="575.5" as="targetPoint" />
            <Array as="points">
              <mxPoint x="376" y="435" />
            </Array>
          </mxGeometry>
        </mxCell>
        <mxCell id="mr97MAXbSIuRlWpQxelZ-145" value="" style="fillColor=#12AAB5;strokeColor=none;opacity=30;" vertex="1" parent="1">
          <mxGeometry x="410" y="450" width="150" height="520" as="geometry" />
        </mxCell>
        <mxCell id="mr97MAXbSIuRlWpQxelZ-146" value="主畫面" style="rounded=1;fillColor=#23445D;gradientColor=none;strokeColor=none;fontColor=#FFFFFF;fontStyle=1;fontFamily=Tahoma;fontSize=14" vertex="1" parent="1">
          <mxGeometry x="420" y="460" width="130" height="60" as="geometry" />
        </mxCell>
        <mxCell id="mr97MAXbSIuRlWpQxelZ-147" value="問卷調查" style="rounded=1;fillColor=#23445D;gradientColor=none;strokeColor=none;fontColor=#FFFFFF;fontStyle=1;fontFamily=Tahoma;fontSize=14" vertex="1" parent="1">
          <mxGeometry x="420" y="545" width="130" height="60" as="geometry" />
        </mxCell>
        <mxCell id="mr97MAXbSIuRlWpQxelZ-148" value="AI營養師" style="rounded=1;fillColor=#23445D;gradientColor=none;strokeColor=none;fontColor=#FFFFFF;fontStyle=1;fontFamily=Tahoma;fontSize=14" vertex="1" parent="1">
          <mxGeometry x="420" y="635" width="130" height="60" as="geometry" />
        </mxCell>
        <mxCell id="mr97MAXbSIuRlWpQxelZ-149" value="" style="edgeStyle=elbowEdgeStyle;elbow=vertical;strokeWidth=2;rounded=0;entryX=1;entryY=0.5;entryDx=0;entryDy=0;" edge="1" target="mr97MAXbSIuRlWpQxelZ-146" parent="1">
          <mxGeometry x="-23" y="135.5" width="100" height="100" as="geometry">
            <mxPoint x="572" y="415.5" as="sourcePoint" />
            <mxPoint x="447" y="135" as="targetPoint" />
            <Array as="points">
              <mxPoint x="572" y="489.5" />
            </Array>
          </mxGeometry>
        </mxCell>
        <mxCell id="mr97MAXbSIuRlWpQxelZ-150" value="" style="edgeStyle=elbowEdgeStyle;elbow=horizontal;strokeWidth=2;rounded=0" edge="1" target="mr97MAXbSIuRlWpQxelZ-147" parent="1">
          <mxGeometry x="-23" y="135.5" width="100" height="100" as="geometry">
            <mxPoint x="572" y="415.5" as="sourcePoint" />
            <mxPoint x="447" y="135" as="targetPoint" />
            <Array as="points">
              <mxPoint x="572" y="435" />
            </Array>
          </mxGeometry>
        </mxCell>
        <mxCell id="mr97MAXbSIuRlWpQxelZ-151" value="" style="edgeStyle=elbowEdgeStyle;elbow=horizontal;strokeWidth=2;rounded=0" edge="1" target="mr97MAXbSIuRlWpQxelZ-148" parent="1">
          <mxGeometry x="-23" y="135.5" width="100" height="100" as="geometry">
            <mxPoint x="572" y="415.5" as="sourcePoint" />
            <mxPoint x="447" y="135" as="targetPoint" />
            <Array as="points">
              <mxPoint x="572" y="475" />
            </Array>
          </mxGeometry>
        </mxCell>
        <mxCell id="mr97MAXbSIuRlWpQxelZ-152" value="" style="edgeStyle=elbowEdgeStyle;elbow=vertical;strokeWidth=2;rounded=0;entryX=1;entryY=0.5;entryDx=0;entryDy=0;exitX=0.75;exitY=1;exitDx=0;exitDy=0;" edge="1" target="mr97MAXbSIuRlWpQxelZ-155" parent="1">
          <mxGeometry x="-23" y="135.5" width="100" height="100" as="geometry">
            <mxPoint x="572.5" y="415.5" as="sourcePoint" />
            <mxPoint x="447" y="399.5" as="targetPoint" />
            <Array as="points">
              <mxPoint x="572" y="754" />
            </Array>
          </mxGeometry>
        </mxCell>
        <mxCell id="mr97MAXbSIuRlWpQxelZ-153" value="" style="edgeStyle=elbowEdgeStyle;elbow=horizontal;strokeWidth=2;rounded=0;exitX=0.75;exitY=1;exitDx=0;exitDy=0;" edge="1" target="mr97MAXbSIuRlWpQxelZ-156" parent="1">
          <mxGeometry x="-23" y="135.5" width="100" height="100" as="geometry">
            <mxPoint x="572.5" y="415.5" as="sourcePoint" />
            <mxPoint x="447" y="399.5" as="targetPoint" />
            <Array as="points">
              <mxPoint x="572" y="699.5" />
            </Array>
          </mxGeometry>
        </mxCell>
        <mxCell id="mr97MAXbSIuRlWpQxelZ-154" value="" style="edgeStyle=elbowEdgeStyle;elbow=horizontal;strokeWidth=2;rounded=0;exitX=0.75;exitY=1;exitDx=0;exitDy=0;" edge="1" target="mr97MAXbSIuRlWpQxelZ-157" parent="1">
          <mxGeometry x="-23" y="135.5" width="100" height="100" as="geometry">
            <mxPoint x="572.5" y="415.5" as="sourcePoint" />
            <mxPoint x="447" y="399.5" as="targetPoint" />
            <Array as="points">
              <mxPoint x="572" y="739.5" />
            </Array>
          </mxGeometry>
        </mxCell>
        <mxCell id="mr97MAXbSIuRlWpQxelZ-155" value="AI健身教練" style="rounded=1;fillColor=#23445D;gradientColor=none;strokeColor=none;fontColor=#FFFFFF;fontStyle=1;fontFamily=Tahoma;fontSize=14" vertex="1" parent="1">
          <mxGeometry x="420" y="724.5" width="130" height="60" as="geometry" />
        </mxCell>
        <mxCell id="mr97MAXbSIuRlWpQxelZ-156" value="數據追蹤" style="rounded=1;fillColor=#23445D;gradientColor=none;strokeColor=none;fontColor=#FFFFFF;fontStyle=1;fontFamily=Tahoma;fontSize=14" vertex="1" parent="1">
          <mxGeometry x="420" y="809.5" width="130" height="60" as="geometry" />
        </mxCell>
        <mxCell id="mr97MAXbSIuRlWpQxelZ-157" value="使用者設置" style="rounded=1;fillColor=#23445D;gradientColor=none;strokeColor=none;fontColor=#FFFFFF;fontStyle=1;fontFamily=Tahoma;fontSize=14" vertex="1" parent="1">
          <mxGeometry x="420" y="899.5" width="130" height="60" as="geometry" />
        </mxCell>
        <mxCell id="mr97MAXbSIuRlWpQxelZ-181" value="使用者測試" style="rounded=1;fillColor=#23445D;gradientColor=none;strokeColor=none;fontColor=#FFFFFF;fontStyle=1;fontFamily=Tahoma;fontSize=14" vertex="1" parent="1">
          <mxGeometry x="1542" y="635" width="130" height="60" as="geometry" />
        </mxCell>
        <mxCell id="mr97MAXbSIuRlWpQxelZ-182" value="獲取和處理用戶資訊" style="rounded=1;fillColor=#23445D;gradientColor=none;strokeColor=none;fontColor=#FFFFFF;fontStyle=1;fontFamily=Tahoma;fontSize=14" vertex="1" parent="1">
          <mxGeometry x="1140" y="545.5" width="130" height="60" as="geometry" />
        </mxCell>
        <mxCell id="mr97MAXbSIuRlWpQxelZ-183" value="處理登入和登出邏輯" style="rounded=1;fillColor=#23445D;gradientColor=none;strokeColor=none;fontColor=#FFFFFF;fontStyle=1;fontFamily=Tahoma;fontSize=14" vertex="1" parent="1">
          <mxGeometry x="1140" y="460.5" width="130" height="60" as="geometry" />
        </mxCell>
        <mxCell id="mr97MAXbSIuRlWpQxelZ-184" value="進行測試和性能優化" style="rounded=1;fillColor=#23445D;gradientColor=none;strokeColor=none;fontColor=#FFFFFF;fontStyle=1;fontFamily=Tahoma;fontSize=14" vertex="1" parent="1">
          <mxGeometry x="602.5" y="769.5" width="130" height="60" as="geometry" />
        </mxCell>
        <mxCell id="mr97MAXbSIuRlWpQxelZ-185" value="訓練模型考慮個體&#xa;的營養需求和目標" style="rounded=1;fillColor=#23445D;gradientColor=none;strokeColor=none;fontColor=#FFFFFF;fontStyle=1;fontFamily=Tahoma;fontSize=14" vertex="1" parent="1">
          <mxGeometry x="602.5" y="680.5" width="130" height="60" as="geometry" />
        </mxCell>
        <mxCell id="mr97MAXbSIuRlWpQxelZ-186" value="設計營養方案&#xa;推薦模型" style="rounded=1;fillColor=#23445D;gradientColor=none;strokeColor=none;fontColor=#FFFFFF;fontStyle=1;fontFamily=Tahoma;fontSize=14" vertex="1" parent="1">
          <mxGeometry x="602.5" y="599.5" width="130" height="60" as="geometry" />
        </mxCell>
        <mxCell id="mr97MAXbSIuRlWpQxelZ-193" style="edgeStyle=elbowEdgeStyle;shape=connector;rounded=0;orthogonalLoop=1;jettySize=auto;elbow=vertical;html=1;exitX=1;exitY=1;exitDx=0;exitDy=0;entryX=1;entryY=0.5;entryDx=0;entryDy=0;labelBackgroundColor=default;strokeColor=default;strokeWidth=2;align=center;verticalAlign=middle;fontFamily=Helvetica;fontSize=11;fontColor=default;endArrow=classic;" edge="1" parent="1" source="mr97MAXbSIuRlWpQxelZ-187" target="mr97MAXbSIuRlWpQxelZ-186">
          <mxGeometry relative="1" as="geometry">
            <Array as="points">
              <mxPoint x="749.5" y="629.62" />
            </Array>
          </mxGeometry>
        </mxCell>
        <mxCell id="mr97MAXbSIuRlWpQxelZ-196" style="edgeStyle=elbowEdgeStyle;shape=connector;rounded=0;orthogonalLoop=1;jettySize=auto;elbow=vertical;html=1;exitX=1;exitY=1;exitDx=0;exitDy=0;entryX=1;entryY=0.5;entryDx=0;entryDy=0;labelBackgroundColor=default;strokeColor=default;strokeWidth=2;align=center;verticalAlign=middle;fontFamily=Helvetica;fontSize=11;fontColor=default;endArrow=classic;" edge="1" parent="1" source="mr97MAXbSIuRlWpQxelZ-187" target="mr97MAXbSIuRlWpQxelZ-185">
          <mxGeometry relative="1" as="geometry">
            <Array as="points">
              <mxPoint x="749.5" y="710.62" />
            </Array>
          </mxGeometry>
        </mxCell>
        <mxCell id="mr97MAXbSIuRlWpQxelZ-197" style="edgeStyle=elbowEdgeStyle;shape=connector;rounded=0;orthogonalLoop=1;jettySize=auto;elbow=vertical;html=1;exitX=1;exitY=1;exitDx=0;exitDy=0;entryX=1;entryY=0.5;entryDx=0;entryDy=0;labelBackgroundColor=default;strokeColor=default;strokeWidth=2;align=center;verticalAlign=middle;fontFamily=Helvetica;fontSize=11;fontColor=default;endArrow=classic;" edge="1" parent="1" source="mr97MAXbSIuRlWpQxelZ-187" target="mr97MAXbSIuRlWpQxelZ-184">
          <mxGeometry relative="1" as="geometry">
            <Array as="points">
              <mxPoint x="749.5" y="805.62" />
            </Array>
          </mxGeometry>
        </mxCell>
        <mxCell id="mr97MAXbSIuRlWpQxelZ-187" value="營養師模型訓練" style="rounded=1;fillColor=#23445D;gradientColor=none;strokeColor=none;fontColor=#FFFFFF;fontStyle=1;fontFamily=Tahoma;fontSize=14" vertex="1" parent="1">
          <mxGeometry x="622.5" y="486.12" width="130" height="60" as="geometry" />
        </mxCell>
        <mxCell id="mr97MAXbSIuRlWpQxelZ-198" value="" style="fillColor=#12AAB5;strokeColor=none;opacity=30;" vertex="1" parent="1">
          <mxGeometry x="785.5" y="476.37" width="150" height="79.5" as="geometry" />
        </mxCell>
        <mxCell id="mr97MAXbSIuRlWpQxelZ-199" value="" style="fillColor=#F2931E;strokeColor=none;opacity=30;" vertex="1" parent="1">
          <mxGeometry x="765.5" y="584.5" width="150" height="260" as="geometry" />
        </mxCell>
        <mxCell id="mr97MAXbSIuRlWpQxelZ-200" value="進行測試和性能優化" style="rounded=1;fillColor=#23445D;gradientColor=none;strokeColor=none;fontColor=#FFFFFF;fontStyle=1;fontFamily=Tahoma;fontSize=14" vertex="1" parent="1">
          <mxGeometry x="775.5" y="769.5000000000001" width="130" height="60" as="geometry" />
        </mxCell>
        <mxCell id="mr97MAXbSIuRlWpQxelZ-201" value="訓練模型考慮個體&#xa;的營養需求和目標" style="rounded=1;fillColor=#23445D;gradientColor=none;strokeColor=none;fontColor=#FFFFFF;fontStyle=1;fontFamily=Tahoma;fontSize=14" vertex="1" parent="1">
          <mxGeometry x="775.5" y="681.12" width="130" height="60" as="geometry" />
        </mxCell>
        <mxCell id="mr97MAXbSIuRlWpQxelZ-202" value="設計健身方案&#xa;推薦模型" style="rounded=1;fillColor=#23445D;gradientColor=none;strokeColor=none;fontColor=#FFFFFF;fontStyle=1;fontFamily=Tahoma;fontSize=14" vertex="1" parent="1">
          <mxGeometry x="775.5" y="600.12" width="130" height="60" as="geometry" />
        </mxCell>
        <mxCell id="mr97MAXbSIuRlWpQxelZ-211" style="edgeStyle=elbowEdgeStyle;shape=connector;rounded=0;orthogonalLoop=1;jettySize=auto;elbow=vertical;html=1;exitX=1;exitY=1;exitDx=0;exitDy=0;entryX=1;entryY=0.5;entryDx=0;entryDy=0;labelBackgroundColor=default;strokeColor=default;strokeWidth=2;align=center;verticalAlign=middle;fontFamily=Helvetica;fontSize=11;fontColor=default;endArrow=classic;" edge="1" parent="1" source="mr97MAXbSIuRlWpQxelZ-206" target="mr97MAXbSIuRlWpQxelZ-200">
          <mxGeometry relative="1" as="geometry">
            <Array as="points">
              <mxPoint x="922.5" y="799.62" />
            </Array>
          </mxGeometry>
        </mxCell>
        <mxCell id="mr97MAXbSIuRlWpQxelZ-212" style="edgeStyle=elbowEdgeStyle;shape=connector;rounded=0;orthogonalLoop=1;jettySize=auto;elbow=vertical;html=1;exitX=1;exitY=1;exitDx=0;exitDy=0;entryX=1;entryY=0.5;entryDx=0;entryDy=0;labelBackgroundColor=default;strokeColor=default;strokeWidth=2;align=center;verticalAlign=middle;fontFamily=Helvetica;fontSize=11;fontColor=default;endArrow=classic;" edge="1" parent="1" source="mr97MAXbSIuRlWpQxelZ-206" target="mr97MAXbSIuRlWpQxelZ-201">
          <mxGeometry relative="1" as="geometry">
            <Array as="points">
              <mxPoint x="922.5" y="711.62" />
            </Array>
          </mxGeometry>
        </mxCell>
        <mxCell id="mr97MAXbSIuRlWpQxelZ-213" style="edgeStyle=elbowEdgeStyle;shape=connector;rounded=0;orthogonalLoop=1;jettySize=auto;elbow=vertical;html=1;exitX=1;exitY=1;exitDx=0;exitDy=0;entryX=1;entryY=0.5;entryDx=0;entryDy=0;labelBackgroundColor=default;strokeColor=default;strokeWidth=2;align=center;verticalAlign=middle;fontFamily=Helvetica;fontSize=11;fontColor=default;endArrow=classic;" edge="1" parent="1" source="mr97MAXbSIuRlWpQxelZ-206" target="mr97MAXbSIuRlWpQxelZ-202">
          <mxGeometry relative="1" as="geometry">
            <Array as="points">
              <mxPoint x="922.5" y="630.62" />
            </Array>
          </mxGeometry>
        </mxCell>
        <mxCell id="mr97MAXbSIuRlWpQxelZ-206" value="健身教練模型訓練" style="rounded=1;fillColor=#23445D;gradientColor=none;strokeColor=none;fontColor=#FFFFFF;fontStyle=1;fontFamily=Tahoma;fontSize=14" vertex="1" parent="1">
          <mxGeometry x="795.5" y="486.12" width="130" height="60" as="geometry" />
        </mxCell>
        <mxCell id="mr97MAXbSIuRlWpQxelZ-214" value="" style="fillColor=#12AAB5;strokeColor=none;opacity=30;" vertex="1" parent="1">
          <mxGeometry x="951.5" y="476.37" width="150" height="79.5" as="geometry" />
        </mxCell>
        <mxCell id="mr97MAXbSIuRlWpQxelZ-215" value="" style="fillColor=#F2931E;strokeColor=none;opacity=30;" vertex="1" parent="1">
          <mxGeometry x="935.5" y="584.5" width="150" height="260" as="geometry" />
        </mxCell>
        <mxCell id="mr97MAXbSIuRlWpQxelZ-216" value="進行測試和性能優化" style="rounded=1;fillColor=#23445D;gradientColor=none;strokeColor=none;fontColor=#FFFFFF;fontStyle=1;fontFamily=Tahoma;fontSize=14" vertex="1" parent="1">
          <mxGeometry x="945.5" y="769.5000000000001" width="130" height="60" as="geometry" />
        </mxCell>
        <mxCell id="mr97MAXbSIuRlWpQxelZ-217" value="訓練模型考慮個體&#xa;的營養需求和目標" style="rounded=1;fillColor=#23445D;gradientColor=none;strokeColor=none;fontColor=#FFFFFF;fontStyle=1;fontFamily=Tahoma;fontSize=14" vertex="1" parent="1">
          <mxGeometry x="945.5" y="681.12" width="130" height="60" as="geometry" />
        </mxCell>
        <mxCell id="mr97MAXbSIuRlWpQxelZ-218" value="設計健身方案&#xa;推薦模型" style="rounded=1;fillColor=#23445D;gradientColor=none;strokeColor=none;fontColor=#FFFFFF;fontStyle=1;fontFamily=Tahoma;fontSize=14" vertex="1" parent="1">
          <mxGeometry x="945.5" y="600.12" width="130" height="60" as="geometry" />
        </mxCell>
        <mxCell id="mr97MAXbSIuRlWpQxelZ-219" style="edgeStyle=elbowEdgeStyle;shape=connector;rounded=0;orthogonalLoop=1;jettySize=auto;elbow=vertical;html=1;exitX=1;exitY=1;exitDx=0;exitDy=0;entryX=1;entryY=0.5;entryDx=0;entryDy=0;labelBackgroundColor=default;strokeColor=default;strokeWidth=2;align=center;verticalAlign=middle;fontFamily=Helvetica;fontSize=11;fontColor=default;endArrow=classic;" edge="1" source="mr97MAXbSIuRlWpQxelZ-222" target="mr97MAXbSIuRlWpQxelZ-216" parent="1">
          <mxGeometry relative="1" as="geometry">
            <Array as="points">
              <mxPoint x="1088.5" y="799.62" />
            </Array>
          </mxGeometry>
        </mxCell>
        <mxCell id="mr97MAXbSIuRlWpQxelZ-220" style="edgeStyle=elbowEdgeStyle;shape=connector;rounded=0;orthogonalLoop=1;jettySize=auto;elbow=vertical;html=1;exitX=1;exitY=1;exitDx=0;exitDy=0;entryX=1;entryY=0.5;entryDx=0;entryDy=0;labelBackgroundColor=default;strokeColor=default;strokeWidth=2;align=center;verticalAlign=middle;fontFamily=Helvetica;fontSize=11;fontColor=default;endArrow=classic;" edge="1" source="mr97MAXbSIuRlWpQxelZ-222" target="mr97MAXbSIuRlWpQxelZ-217" parent="1">
          <mxGeometry relative="1" as="geometry">
            <Array as="points">
              <mxPoint x="1088.5" y="711.62" />
            </Array>
          </mxGeometry>
        </mxCell>
        <mxCell id="mr97MAXbSIuRlWpQxelZ-221" style="edgeStyle=elbowEdgeStyle;shape=connector;rounded=0;orthogonalLoop=1;jettySize=auto;elbow=vertical;html=1;exitX=1;exitY=1;exitDx=0;exitDy=0;entryX=1;entryY=0.5;entryDx=0;entryDy=0;labelBackgroundColor=default;strokeColor=default;strokeWidth=2;align=center;verticalAlign=middle;fontFamily=Helvetica;fontSize=11;fontColor=default;endArrow=classic;" edge="1" source="mr97MAXbSIuRlWpQxelZ-222" target="mr97MAXbSIuRlWpQxelZ-218" parent="1">
          <mxGeometry relative="1" as="geometry">
            <Array as="points">
              <mxPoint x="1088.5" y="630.62" />
            </Array>
          </mxGeometry>
        </mxCell>
        <mxCell id="mr97MAXbSIuRlWpQxelZ-222" value="影像辨識訓練" style="rounded=1;fillColor=#23445D;gradientColor=none;strokeColor=none;fontColor=#FFFFFF;fontStyle=1;fontFamily=Tahoma;fontSize=14" vertex="1" parent="1">
          <mxGeometry x="961.5" y="486.12" width="130" height="60" as="geometry" />
        </mxCell>
        <mxCell id="mr97MAXbSIuRlWpQxelZ-228" style="edgeStyle=elbowEdgeStyle;shape=connector;rounded=0;orthogonalLoop=1;jettySize=auto;elbow=vertical;html=1;exitX=0.25;exitY=1;exitDx=0;exitDy=0;entryX=0;entryY=0.5;entryDx=0;entryDy=0;labelBackgroundColor=default;strokeColor=default;strokeWidth=2;align=center;verticalAlign=middle;fontFamily=Helvetica;fontSize=11;fontColor=default;endArrow=classic;" edge="1" target="mr97MAXbSIuRlWpQxelZ-231" parent="1">
          <mxGeometry relative="1" as="geometry">
            <mxPoint x="1320" y="416" as="sourcePoint" />
            <Array as="points">
              <mxPoint x="1322" y="490" />
            </Array>
          </mxGeometry>
        </mxCell>
        <mxCell id="mr97MAXbSIuRlWpQxelZ-230" value="" style="fillColor=#12AAB5;strokeColor=none;opacity=30;" vertex="1" parent="1">
          <mxGeometry x="1332" y="450" width="150" height="80" as="geometry" />
        </mxCell>
        <mxCell id="mr97MAXbSIuRlWpQxelZ-231" value="資料庫設計與管理" style="rounded=1;fillColor=#23445D;gradientColor=none;strokeColor=none;fontColor=#FFFFFF;fontStyle=1;fontFamily=Tahoma;fontSize=14" vertex="1" parent="1">
          <mxGeometry x="1342" y="460.5" width="130" height="60" as="geometry" />
        </mxCell>
        <mxCell id="mr97MAXbSIuRlWpQxelZ-236" value="單元測試" style="rounded=1;fillColor=#23445D;gradientColor=none;strokeColor=none;fontColor=#FFFFFF;fontStyle=1;fontFamily=Tahoma;fontSize=14" vertex="1" parent="1">
          <mxGeometry x="1542" y="458.62" width="130" height="60" as="geometry" />
        </mxCell>
        <mxCell id="mr97MAXbSIuRlWpQxelZ-237" value="整合測試" style="rounded=1;fillColor=#23445D;gradientColor=none;strokeColor=none;fontColor=#FFFFFF;fontStyle=1;fontFamily=Tahoma;fontSize=14" vertex="1" parent="1">
          <mxGeometry x="1542" y="543.62" width="130" height="60" as="geometry" />
        </mxCell>
      </root>
    </mxGraphModel>
  </diagram>
</mxfile>
